<svg xmlns="http://www.w3.org/2000/svg" viewBox="0 0 96 96" role="img" aria-labelledby="logoTitle logoDesc">
  <title id="logoTitle">Generic school portal logo</title>
  <desc id="logoDesc">A blue circular school logo with an open book and star.</desc>
  <defs>
    <linearGradient id="logoBg" x1="12" y1="12" x2="84" y2="84" gradientUnits="userSpaceOnUse">
      <stop offset="0" stop-color="#2563eb"/>
      <stop offset="1" stop-color="#0f766e"/>
    </linearGradient>
  </defs>
  <circle cx="48" cy="48" r="44" fill="url(#logoBg)"/>
  <circle cx="48" cy="48" r="39" fill="none" stroke="#bfdbfe" stroke-width="2.5" opacity="0.65"/>
  <path d="M27 33.5c7.5 0 13 2.2 17 6.7v21.2c-4-4-9.6-6-17-6.2Z" fill="#fff"/>
  <path d="M69 33.5c-7.5 0-13 2.2-17 6.7v21.2c4-4 9.6-6 17-6.2Z" fill="#e0f2fe"/>
  <path d="M48 40.2c4-4.5 9.5-6.7 17-6.7v21.5c-7.3.2-12.8 2.2-17 6.2" fill="none" stroke="#f8fafc" stroke-linejoin="round" stroke-width="2.5"/>
  <path d="M48 40.2c-4-4.5-9.5-6.7-17-6.7v21.5c7.3.2 12.8 2.2 17 6.2" fill="none" stroke="#f8fafc" stroke-linejoin="round" stroke-width="2.5"/>
  <path d="m48 20.5 2.8 5.7 6.2.9-4.5 4.4 1.1 6.2-5.6-3-5.6 3 1.1-6.2-4.5-4.4 6.2-.9Z" fill="#fde68a"/>
</svg>
