<svg xmlns="http://www.w3.org/2000/svg" viewBox="0 0 1600 900">
  <defs>
    <linearGradient id="bg" x1="0%" y1="0%" x2="100%" y2="100%">
      <stop offset="0%" stop-color="#eff6ff" />
      <stop offset="100%" stop-color="#ede9fe" />
    </linearGradient>
  </defs>
  <rect width="1600" height="900" fill="url(#bg)" />
  <circle cx="1360" cy="210" r="130" fill="#c4b5fd" opacity="0.45" />
  <rect x="150" y="150" width="1300" height="600" rx="42" fill="#ffffff" stroke="#c7d2fe" stroke-width="6" />
  <rect x="245" y="250" width="470" height="400" rx="30" fill="#eef2ff" />
  <rect x="785" y="250" width="450" height="34" rx="17" fill="#4338ca" opacity="0.88" />
  <rect x="785" y="316" width="380" height="24" rx="12" fill="#6366f1" opacity="0.75" />
  <rect x="785" y="372" width="430" height="24" rx="12" fill="#818cf8" opacity="0.82" />
  <rect x="785" y="430" width="320" height="24" rx="12" fill="#c4b5fd" />
  <rect x="785" y="500" width="190" height="56" rx="28" fill="#4338ca" />
  <path d="M375 302h210c34 0 62 28 62 62v164c0 34-28 62-62 62H375c-34 0-62-28-62-62V364c0-34 28-62 62-62z" fill="#ffffff" stroke="#818cf8" stroke-width="10" />
  <circle cx="480" cy="426" r="76" fill="#6366f1" opacity="0.9" />
  <rect x="390" y="526" width="180" height="24" rx="12" fill="#a5b4fc" opacity="0.92" />
</svg>
